<?xml version="1.0" encoding="utf-8"?>
<!-- Generator: Adobe Illustrator 22.0.1, SVG Export Plug-In . SVG Version: 6.00 Build 0)  -->
<svg version="1.1" id="Layer_1" xmlns="http://www.w3.org/2000/svg" xmlns:xlink="http://www.w3.org/1999/xlink" x="0px" y="0px"
	 viewBox="0 0 352.7393494 61.7914696" style="enable-background:new 0 0 352.7393494 61.7914696;" xml:space="preserve">
<style type="text/css">
	.st0{fill:#0099FF;}
	.st1{fill:#0066CC;}
</style>
<g>
	<g>
		<path d="M96.7443848,44.8737602c0.2285156,0,0.34375,0.1142578,0.34375,0.34375v3.7753906
			c0,0.2294922-0.1152344,0.34375-0.34375,0.34375h-19.09375c-0.2285156,0-0.3427734-0.1142578-0.3427734-0.34375v-3.6445312
			c0-0.0878906,0.0351562-0.1660156,0.1054688-0.2373047l13.1513672-15.0790997H78.0734863
			c-0.2285156,0-0.3427734-0.1152344-0.3427734-0.34375v-3.7763672c0-0.2285156,0.1142578-0.3427734,0.3427734-0.3427734h18.4599609
			c0.2285156,0,0.34375,0.1142578,0.34375,0.3427734v3.5126953c0,0.0878906-0.0263672,0.1679688-0.0800781,0.2373047
			L83.5402832,44.8737602H96.7443848z"/>
		<path d="M105.7766113,21.2643871c-0.7050781,0-1.3037109-0.2460938-1.7958984-0.7402344
			c-0.5107422-0.5097656-0.765625-1.1171875-0.765625-1.8222656c0-0.703125,0.2548828-1.3027344,0.765625-1.7949219
			c0.4921875-0.4931641,1.0908203-0.7402344,1.7958984-0.7402344c0.7041016,0,1.3027344,0.2470703,1.7958984,0.7402344
			c0.4921875,0.4921875,0.7392578,1.0917969,0.7392578,1.7949219c0,0.7050781-0.2470703,1.3125-0.7392578,1.8222656
			C107.0793457,21.0182934,106.4807129,21.2643871,105.7766113,21.2643871z M107.6516113,25.621809
			c0.2285156,0,0.3427734,0.1142578,0.3427734,0.3427734v23.0283184c0,0.2294922-0.1142578,0.34375-0.3427734,0.34375h-3.75
			c-0.2294922,0-0.34375-0.1142578-0.34375-0.34375V25.9645824c0-0.2285156,0.1142578-0.3427734,0.34375-0.3427734H107.6516113z"/>
		<path d="M123.8674316,25.621809c3.1513672,0.0175781,5.8359375,1.1796875,8.0546875,3.4853516
			c2.2177734,2.2890625,3.3271484,5.0185528,3.3271484,8.1865215v1.5058594c0,0.2109375-0.1054688,0.3261719-0.3164062,0.34375
			l-17.4306641,1.5048828c0.5986328,1.2675781,1.4960938,2.2890625,2.6943359,3.0634766
			c1.2148438,0.7753906,2.5439453,1.1621094,3.9873047,1.1621094c1.2675781,0,2.4560547-0.2988281,3.5654297-0.8984375
			c1.1259766-0.6152344,2.0244141-1.4521484,2.6933594-2.5078125c0.1230469-0.1943359,0.28125-0.2382812,0.4755859-0.1328125
			l3.2480469,1.9013672c0.2119141,0.1064453,0.2548828,0.2646484,0.1328125,0.4755859
			c-1.0742188,1.7421875-2.5185547,3.1162109-4.3310547,4.1191406c-1.7958984,1.0039062-3.7236328,1.5058594-5.7841797,1.5058594
			c-3.2568359,0-6.0478516-1.1621094-8.3710938-3.4863281c-2.3242188-2.3056641-3.4863281-5.0966797-3.4863281-8.3710938
			c0-3.3457031,1.1181641-6.1621075,3.3535156-8.45117C117.9162598,26.7389965,120.6447754,25.6042309,123.8674316,25.621809z
			 M130.5480957,35.0495415c-0.3867188-1.5136719-1.1875-2.7207031-2.4023438-3.6181622
			c-1.2148438-0.9150391-2.6679688-1.3730469-4.3574219-1.3730469c-1.7792969,0-3.3105469,0.5810547-4.5957031,1.7431641
			c-1.2851562,1.1445293-2.0595703,2.623045-2.3242188,4.4365215L130.5480957,35.0495415z"/>
		<path d="M142.5900879,49.3366508c-0.2285156,0-0.3427734-0.1142578-0.3427734-0.34375V11.7829418
			c0-0.2285156,0.1142578-0.3427734,0.3427734-0.3427734h3.8564453c0.2285156,0,0.3427734,0.1142578,0.3427734,0.3427734v37.2099609
			c0,0.2294922-0.1142578,0.34375-0.3427734,0.34375H142.5900879z"/>
		<path d="M172.4855957,25.5417309c0.1582031,0,0.2636719,0.0703125,0.3164062,0.2119141
			c0.0703125,0.1582031,0.0439453,0.2900391-0.0791016,0.3955078l-9.2958984,8.8740215l11.3828125,13.7060547
			c0.0878906,0.1230469,0.0966797,0.2460938,0.0263672,0.3691406c-0.0527344,0.1416016-0.1503906,0.2119141-0.2910156,0.2119141
			h-4.9912109c-0.1230469,0-0.2109375-0.0439453-0.2636719-0.1318359l-9.1376953-11.0126953l-1.1357422,1.0830078v9.71875
			c0,0.2285156-0.1142578,0.3427734-0.3427734,0.3427734h-3.8300781c-0.2285156,0-0.3427734-0.1142578-0.3427734-0.3427734
			V11.7829418c0-0.2285156,0.1142578-0.3427734,0.3427734-0.3427734h3.8300781c0.2285156,0,0.3427734,0.1142578,0.3427734,0.3427734
			V32.963604l7.6855469-7.3164043c0.0527344-0.0693359,0.1318359-0.1054688,0.2373047-0.1054688H172.4855957z"/>
		<path d="M187.6711426,25.621809c3.1513672,0.0175781,5.8359375,1.1796875,8.0546875,3.4853516
			c2.2177734,2.2890625,3.3271484,5.0185528,3.3271484,8.1865215v1.5058594c0,0.2109375-0.1054688,0.3261719-0.3164062,0.34375
			l-17.4306641,1.5048828c0.5986328,1.2675781,1.4960938,2.2890625,2.6943359,3.0634766
			c1.2148438,0.7753906,2.5439453,1.1621094,3.9873047,1.1621094c1.2675781,0,2.4560547-0.2988281,3.5654297-0.8984375
			c1.1259766-0.6152344,2.0244141-1.4521484,2.6933594-2.5078125c0.1230469-0.1943359,0.28125-0.2382812,0.4755859-0.1328125
			l3.2480469,1.9013672c0.2119141,0.1064453,0.2548828,0.2646484,0.1328125,0.4755859
			c-1.0742188,1.7421875-2.5185547,3.1162109-4.3310547,4.1191406c-1.7958984,1.0039062-3.7236328,1.5058594-5.7841797,1.5058594
			c-3.2568359,0-6.0478516-1.1621094-8.3710938-3.4863281c-2.3242188-2.3056641-3.4863281-5.0966797-3.4863281-8.3710938
			c0-3.3457031,1.1181641-6.1621075,3.3535156-8.45117C181.7199707,26.7389965,184.4484863,25.6042309,187.6711426,25.621809z
			 M194.3518066,35.0495415c-0.3867188-1.5136719-1.1875-2.7207031-2.4023438-3.6181622
			c-1.2148438-0.9150391-2.6679688-1.3730469-4.3574219-1.3730469c-1.7792969,0-3.3105469,0.5810547-4.5957031,1.7431641
			c-1.2851562,1.1445293-2.0595703,2.623045-2.3242188,4.4365215L194.3518066,35.0495415z"/>
		<path d="M218.7531738,11.4401684c5.2998047,0,9.8066406,1.8925781,13.5214844,5.6777344
			c3.7324219,3.7851562,5.5458984,8.328125,5.4404297,13.6269531c-0.1054688,5.1757793-2.0419922,9.5683575-5.8095703,13.1777325
			c-3.7685547,3.609375-8.2578125,5.4140625-13.46875,5.4140625H206.763916c-0.2294922,0-0.34375-0.1142578-0.34375-0.34375
			V11.7829418c0-0.2285156,0.1142578-0.3427734,0.34375-0.3427734H218.7531738z M218.7531738,44.503643
			c3.9091797,0,7.2363281-1.3818359,9.9833984-4.1455078c2.7636719-2.7636719,4.1455078-6.0917969,4.1455078-9.98242
			c0-3.8916016-1.3818359-7.21875-4.1455078-9.9833984c-2.7470703-2.7470703-6.0742188-4.1201172-9.9833984-4.1201172h-7.5
			V44.503643H218.7531738z"/>
		<path d="M253.7990723,25.621809c3.1513672,0.0175781,5.8359375,1.1796875,8.0546875,3.4853516
			c2.2177734,2.2890625,3.3271484,5.0185528,3.3271484,8.1865215v1.5058594c0,0.2109375-0.1054688,0.3261719-0.3164062,0.34375
			l-17.4306641,1.5048828c0.5986328,1.2675781,1.4960938,2.2890625,2.6943359,3.0634766
			c1.2148438,0.7753906,2.5439453,1.1621094,3.9873047,1.1621094c1.2675781,0,2.4560547-0.2988281,3.5654297-0.8984375
			c1.1259766-0.6152344,2.0244141-1.4521484,2.6933594-2.5078125c0.1230469-0.1943359,0.28125-0.2382812,0.4755859-0.1328125
			l3.2480469,1.9013672c0.2119141,0.1064453,0.2548828,0.2646484,0.1328125,0.4755859
			c-1.0742188,1.7421875-2.5185547,3.1162109-4.3310547,4.1191406c-1.7958984,1.0039062-3.7236328,1.5058594-5.7841797,1.5058594
			c-3.2568359,0-6.0478516-1.1621094-8.3710938-3.4863281c-2.3242188-2.3056641-3.4863281-5.0966797-3.4863281-8.3710938
			c0-3.3457031,1.1181641-6.1621075,3.3535156-8.45117C247.8479004,26.7389965,250.576416,25.6042309,253.7990723,25.621809z
			 M260.4797363,35.0495415c-0.3867188-1.5136719-1.1875-2.7207031-2.4023438-3.6181622
			c-1.2148438-0.9150391-2.6679688-1.3730469-4.3574219-1.3730469c-1.7792969,0-3.3105469,0.5810547-4.5957031,1.7431641
			c-1.2851562,1.1445293-2.0595703,2.623045-2.3242188,4.4365215L260.4797363,35.0495415z"/>
		<path d="M285.4104004,42.1804008v0.1835938v0.2382812v0.2382812v0.078125l-0.0263672,0.0527344
			c0,0.0537109,0,0.1064453,0,0.1591797l-0.0527344,0.3955078l-0.0527344,0.3964844
			c-0.1943359,0.9863281-0.5898438,1.8671875-1.1884766,2.640625c-0.5634766,0.7402344-1.2675781,1.3203125-2.1123047,1.7441406
			c-0.6513672,0.3339844-1.3916016,0.5976562-2.21875,0.7910156c-0.7568359,0.1416016-1.4257812,0.2207031-2.0068359,0.2382812
			h-0.2382812h-0.1054688h-0.1318359h-0.0527344l-0.3701172-0.0263672c-0.1054688,0-0.2460938,0-0.421875,0
			c-0.1240234-0.0175781-0.2822266-0.0351562-0.4755859-0.0527344c-0.5283203-0.0703125-1.0917969-0.1845703-1.6904297-0.3427734
			c-0.8798828-0.2294922-1.7167969-0.5722656-2.5087891-1.03125c-0.4052734-0.2285156-0.7832031-0.4746094-1.1357422-0.7382812
			c-0.2460938-0.1757812-0.4667969-0.3613281-0.6601562-0.5546875c-0.1757812-0.1582031-0.1757812-0.3261719,0-0.5019531
			l2.7470703-2.6152344c0.140625-0.1230469,0.2900391-0.1308594,0.4482422-0.0253906
			c0.1416016,0.1230469,0.2734375,0.2285156,0.3964844,0.3164062c0.1582031,0.1054688,0.2910156,0.1933594,0.3964844,0.2636719
			c0.4921875,0.2822266,1.0029297,0.4941406,1.53125,0.6347656l0.2382812,0.078125l0.2373047,0.0527344l0.1318359,0.0273438
			l0.1318359,0.0253906c0.1064453,0.0185547,0.1855469,0.0273438,0.2382812,0.0273438l0.1054688,0.0263672h0.1054688
			c0.1054688,0.0175781,0.2197266,0.0263672,0.34375,0.0263672l0.3691406,0.0263672l0.2382812-0.0263672
			c0.3339844,0,0.7480469-0.0351562,1.2412109-0.1054688c0.4394531-0.1054688,0.8007812-0.2285156,1.0820312-0.3701172
			c0.5810547-0.3173828,0.9423828-0.7832031,1.0830078-1.3994141l0.0263672-0.1054688l0.0263672-0.0800781v-0.078125v-0.0800781
			v-0.0527344l0.0263672-0.2373047v-0.0537109v-0.0527344l-0.0263672-0.1308594
			c0.0175781-0.0351562,0.0175781-0.0703125,0-0.1064453l-0.0263672-0.1318359
			c-0.0527344-0.2988281-0.1933594-0.5898438-0.421875-0.8710938c-0.4580078-0.5458984-1.3476562-1.1269531-2.6679688-1.7431641
			l-0.9765625-0.4492188l-0.4755859-0.2119141l-0.1054688-0.0527344l-0.0791016-0.0253906v-0.0273438l-0.2382812-0.078125
			c-0.8447266-0.3876953-1.53125-0.7402344-2.0595703-1.0566406c-0.8632812-0.5107422-1.5673828-1.0654297-2.1132812-1.6640625
			c-0.0703125-0.0703125-0.1494141-0.1669922-0.2373047-0.2910156l-0.2109375-0.3164062
			c-0.1767578-0.2460938-0.3085938-0.4667969-0.3964844-0.6601562l-0.1845703-0.3691406
			c-0.0527344-0.140625-0.0976562-0.2646484-0.1318359-0.3701172l-0.1064453-0.3964844l-0.0527344-0.2109375l-0.0263672-0.2119141
			c-0.0351562-0.1582031-0.0615234-0.3076172-0.0791016-0.4492188v-0.2363281l-0.0263672-0.1328125v-0.0527344v-0.0263672
			v-0.1054668v-0.0537109c0-0.0166016,0-0.0078125,0,0.0273438v-0.0273438l0.0263672-0.3427734
			c0-0.1933594,0.0175781-0.4228516,0.0527344-0.6865234c0.0175781-0.1582031,0.0703125-0.3867188,0.1582031-0.6865234
			c0.2646484-0.9853516,0.7402344-1.8134766,1.4267578-2.4824219c0.5810547-0.6162109,1.3027344-1.0908203,2.1650391-1.4267578
			c0.6162109-0.2285156,1.3115234-0.3955078,2.0869141-0.5009766c0.4746094-0.0351562,0.7919922-0.0537109,0.9501953-0.0537109
			l0.4492188-0.0253906l0.4492188,0.0253906c0.4921875,0.0185547,1.046875,0.0888672,1.6630859,0.2119141
			c0.8984375,0.2119141,1.7607422,0.5371094,2.5888672,0.9775391c0.3164062,0.1582031,0.6074219,0.3339844,0.8710938,0.5273438
			c0.2285156,0.1416016,0.4394531,0.2910156,0.6337891,0.4492188c0.0527344,0.0527344,0.140625,0.140625,0.2636719,0.2636719
			c0.1943359,0.1591797,0.2021484,0.3261719,0.0263672,0.5019531l-2.4296875,2.3515625
			c-0.140625,0.140625-0.2900391,0.1484375-0.4482422,0.0253906c-0.1416016-0.1054688-0.2734375-0.2011719-0.3964844-0.2900391
			c-0.1757812-0.1064453-0.3164062-0.1943359-0.4228516-0.2646484c-0.4921875-0.2460938-1.0029297-0.4306641-1.53125-0.5546875
			c-0.4052734-0.0703125-0.7392578-0.1054688-1.0039062-0.1054688l-0.2900391-0.0253906l-0.2910156,0.0253906
			c-0.1230469,0-0.2373047,0-0.3427734,0l-0.1318359,0.0273438h-0.1064453
			c-0.4394531,0.0703125-0.8007812,0.1582031-1.0820312,0.2636719c-0.2998047,0.140625-0.5371094,0.2988281-0.7128906,0.4746094
			c-0.1767578,0.1767578-0.2998047,0.40625-0.3701172,0.6875l-0.0263672,0.1054688l-0.0263672,0.1318359l-0.0263672,0.1318359
			v0.1328125v0.1308594v0.1328106l0.0263672,0.2382812v0.0253906h0.0263672v0.0273438v0.0253906l0.0263672,0.1054688
			l0.0263672,0.0800781l0.0527344,0.0791016l0.1054688,0.1845703l0.0791016,0.1054688l0.0800781,0.1054688
			c0.2460938,0.2646484,0.6064453,0.5371094,1.0820312,0.8193359c0.4052734,0.2294922,0.9599609,0.4931641,1.6640625,0.7919922
			l0.2109375,0.1054688l0.3173828,0.1328125l0.4755859,0.2373047l0.9238281,0.3955078
			c0.8271484,0.3701172,1.5224609,0.7402344,2.0859375,1.109375c0.8632812,0.5283203,1.5585938,1.109375,2.0869141,1.7431641
			c0.7041016,0.8095703,1.1621094,1.7255859,1.3730469,2.7470703l0.0527344,0.3691406
			c0.0351562,0.1582031,0.0527344,0.2822266,0.0527344,0.3701172L285.4104004,42.1804008z"/>
		<path d="M293.8879395,21.2643871c-0.7050781,0-1.3037109-0.2460938-1.7958984-0.7402344
			c-0.5107422-0.5097656-0.765625-1.1171875-0.765625-1.8222656c0-0.703125,0.2548828-1.3027344,0.765625-1.7949219
			c0.4921875-0.4931641,1.0908203-0.7402344,1.7958984-0.7402344c0.7041016,0,1.3027344,0.2470703,1.7958984,0.7402344
			c0.4921875,0.4921875,0.7392578,1.0917969,0.7392578,1.7949219c0,0.7050781-0.2470703,1.3125-0.7392578,1.8222656
			C295.1906738,21.0182934,294.592041,21.2643871,293.8879395,21.2643871z M295.7629395,25.621809
			c0.2285156,0,0.3427734,0.1142578,0.3427734,0.3427734v23.0283184c0,0.2294922-0.1142578,0.34375-0.3427734,0.34375h-3.75
			c-0.2294922,0-0.34375-0.1142578-0.34375-0.34375V25.9645824c0-0.2285156,0.1142578-0.3427734,0.34375-0.3427734H295.7629395z"/>
		<path d="M320.1906738,25.8854809c0-0.2285156,0.1142578-0.34375,0.34375-0.34375h3.7763672
			c0.2285156,0,0.3427734,0.1152344,0.3427734,0.34375v23.1347637c0,3.2744141-1.1621094,6.0742188-3.4853516,8.3974609
			c-2.3242188,2.3242188-5.1240234,3.4853516-8.3984375,3.4853516c-2.0595703,0-3.9970703-0.5009766-5.8095703-1.5039062
			c-1.7958984-1.0214844-3.2314453-2.4042969-4.3046875-4.1464844c-0.1240234-0.1943359-0.0888672-0.3535156,0.1054688-0.4755859
			l3.2744141-1.875c0.1933594-0.1240234,0.3515625-0.0888672,0.4755859,0.1054688
			c0.8798828,1.390625,2.0859375,2.3769531,3.6181641,2.9580078c1.5839844,0.5976562,3.1865234,0.6503906,4.8056641,0.1582031
			c1.5673828-0.4755859,2.84375-1.4003906,3.8300781-2.7734375c0.9501953-1.3554688,1.4257812-2.8691406,1.4257812-4.5419922
			v-2.1650391c-2.2011719,1.8125-4.71875,2.7197266-7.5527344,2.7197266c-1.6728516,0-3.2753906-0.3339844-4.8066406-1.0029297
			c-1.4619141-0.6523438-2.7470703-1.5673828-3.8554688-2.7470703c-2.359375-2.5-3.4248047-5.4755859-3.1953125-8.9267578
			c0.1933594-3.0097656,1.3896484-5.5898418,3.5908203-7.7373028c2.21875-2.1298828,4.8417969-3.2490234,7.8701172-3.3544922
			c2.9931641-0.1054688,5.6425781,0.8017578,7.9492188,2.7207031V25.8854809z M312.6379395,44.9001274
			c2.0419922,0,3.7939453-0.7216797,5.2548828-2.1650391c1.4433594-1.4619141,2.1660156-3.2128906,2.1660156-5.2558594
			s-0.7226562-3.7939453-2.1660156-5.2558594c-1.4609375-1.4433575-3.2128906-2.1650372-5.2548828-2.1650372
			c-2.0605469,0-3.8125,0.7216797-5.2558594,2.1650372c-1.4609375,1.4619141-2.1914062,3.2128906-2.1914062,5.2558594
			s0.7304688,3.7939453,2.1914062,5.2558594C308.8254395,44.1784477,310.5773926,44.9001274,312.6379395,44.9001274z"/>
		<path d="M351.5646973,41.5983696c0.0166016,2.1835938,0.0263672,4.0058594,0.0263672,5.4667969l0.0263672,1.875
			c0,0.2294922-0.1152344,0.34375-0.34375,0.34375h-3.8027344c-0.2294922,0-0.34375-0.1142578-0.34375-0.34375l0.0263672-1.875
			c0-1.4609375,0.0087891-3.2832031,0.0273438-5.4667969c0-0.5800781,0.0078125-1.4609375,0.0263672-2.640625V38.244854v-0.7392578
			c0-0.5458984,0-1.0478516,0-1.5048828v-0.7666016l-0.0263672-0.5537109
			c-0.0361328-0.3876953-0.1064453-0.7578125-0.2119141-1.109375c-0.2460938-0.7402344-0.6425781-1.4003906-1.1884766-1.9804668
			c-0.5283203-0.5644531-1.1708984-0.9863281-1.9277344-1.2685547c-0.3349609-0.140625-0.6953125-0.2373047-1.0830078-0.2900391
			l-0.1582031-0.0273438c-0.0527344-0.0166016-0.0878906-0.0253906-0.1054688-0.0253906h-0.0791016h-0.0527344
			c-0.0361328,0-0.0888672,0-0.1591797,0l-0.1845703-0.0273438h-0.0527344h-0.0527344h-0.1582031l-0.1318359,0.0273438
			c-1.4091797,0.0527344-2.5976562,0.6074219-3.5654297,1.6640625c-0.3876953,0.3867168-0.6962891,0.8271465-0.9248047,1.3203106
			c-0.1933594,0.3867188-0.3339844,0.7832031-0.421875,1.1875c-0.0527344,0.1943359-0.0888672,0.34375-0.1064453,0.4492188
			v0.1054688v0.0800781l-0.0263672,0.1308594c0,0.1591797-0.0087891,0.2822266-0.0263672,0.3701172v0.3173828v13.3886719
			c0,0.2294922-0.1142578,0.34375-0.3427734,0.34375h-3.8554688c-0.2294922,0-0.34375-0.1142578-0.34375-0.34375V25.8063793
			c0-0.2285156,0.1142578-0.3427734,0.34375-0.3427734h3.8554688c0.2285156,0,0.3427734,0.1142578,0.3427734,0.3427734v1.7958984
			c0.4052734-0.2988281,0.8007812-0.5458984,1.1884766-0.7402344c1.1269531-0.5800781,2.3330078-0.9238281,3.6181641-1.0292969
			l0.2382812-0.0263672h0.2373047h0.1318359h0.1054688h0.0527344h0.1855469c0.0527344,0,0.1318359,0,0.2373047,0
			l0.1318359,0.0263672h0.1318359c0.0878906,0,0.1757812,0.0087891,0.2646484,0.0263672l0.2636719,0.0263672
			c0.6865234,0.1054688,1.3476562,0.2734375,1.9814453,0.5019531c1.3554688,0.4931641,2.5166016,1.25,3.4853516,2.2714844
			c1.0039062,1.0214844,1.734375,2.2011719,2.1923828,3.538084c0.2285156,0.6513672,0.3779297,1.3212891,0.4482422,2.0068359
			c0.0537109,0.3349609,0.0800781,0.6777344,0.0800781,1.0302734v0.7666016c0,0.4570312,0,0.9589844,0,1.5048828v0.7392578
			l0.0263672,0.7128906C351.5646973,40.1374321,351.5646973,41.0182915,351.5646973,41.5983696z"/>
	</g>
	<g>
		<path class="st0" d="M30.4051342,52.513401l-7.3750095-7.3750076l-7.3750076-7.3749733l-7.3749762-7.3750095l-7.0049601,7.004961
			c-0.2043713,0.2043724-0.204371,0.5357208,0.0000008,0.7400932l7.0049596,7.0049286l7.3749762,7.3750076l7.0692139,7.0692139
			c0.195797,0.195797,0.4613552,0.3057938,0.7382545,0.3057938h13.0541382c0.4662323,0,0.6997223-0.563694,0.3700447-0.8933678
			L30.4051342,52.513401z"/>
		<path class="st0" d="M52.5301247,15.6383944l-7.3749771-7.3749762l-7.0692101-7.0692124
			c-0.195797-0.1957974-0.4613571-0.3057953-0.7382545-0.3057953H24.2935429c-0.4662323,0-0.6997223,0.563695-0.3700466,0.8933713
			l6.481638,6.4816365l7.3750057,7.3749762l7.3750076,7.3750086l7.3749771,7.3750076l7.0049629-7.004961
			c0.2043686-0.2043724,0.2043686-0.5357227,0-0.7400932L52.5301247,15.6383944z"/>
		<path class="st1" d="M15.3493223,23.3191986l-7.0691814,7.069212l7.3749762,7.3750095l7.3750076-7.3750095l6.481638-6.481636
			c0.3296757-0.3296776,0.0961857-0.8933716-0.3700466-0.8933716H16.0875778
			C15.8106785,23.0134029,15.5451193,23.1234016,15.3493223,23.3191986z"/>
		<path class="st1" d="M45.1551476,23.0134029l-7.3750076,7.3750076l-6.481636,6.481638
			c-0.3296757,0.3296738-0.0961857,0.8933716,0.3700466,0.8933716h13.0541363c0.2769012,0,0.5424614-0.1100006,0.7382584-0.3057976
			l7.0691795-7.069212L45.1551476,23.0134029z"/>
	</g>
</g>
</svg>
