<?xml version="1.0" encoding="UTF-8"?>
<svg id="Layer_1" xmlns="http://www.w3.org/2000/svg" version="1.1" viewBox="0 0 1000 1000">
  <!-- Generator: Adobe Illustrator 29.4.0, SVG Export Plug-In . SVG Version: 2.1.0 Build 152)  -->
  <path d="M952.19332,621.88731c-4.91358-49.32929-22.45109-98.09398-43.29688-140.8055,19.44801,41.77092,35.3613,88.44505,40.04965,135.47564,3.69953,37.12347,3.45965,69.10508.7288,97.0191,1.51863-3.50848,2.85354-7.06274,4.28611-10.59319,1.56136-23.8684,1.26471-50.68617-1.76767-81.09605Z" fill="#6ac5b6"/>
  <g>
    <path d="M573.20431,230.96348c126.26985-107.28329,290.72707-46.62102,332.26849-28.56835-3.76789-5.08082-7.7012-9.97304-11.63389-14.87563-52.33115-19.95524-175.17554-54.50717-284.38276,6.75205-14.4209,8.09062-28.58178,17.84087-42.34224,29.52177-1.72311,1.4637-3.38945,3.06473-5.05458,4.67004,3.727-4.26535,7.59926-8.19256,11.65587-11.63878,115.97392-98.52247,262.41509-55.00707,316.73365-33.47521-27.41656-33.43005-58.57293-62.58497-92.58406-87.19804-12.98894-9.39989-26.31421-18.23823-40.06368-26.29528-1.31843-.77335-2.58131-1.6517-3.90645-2.41223-51.7519-13.31611-120.09095-8.12358-190.19645,28.65075-2.46961,1.29523-4.93616,2.53004-7.41005,3.90462-.15809.0879-.31557.16175-.47366.24965-.00793.00427-.01465.00916-.02258.01343-2.09911,1.11639-4.20981,2.16991-6.29915,3.33513-.42971.23988-.86003.47976-1.28974.71964-112.06564,62.86331-143.11763,127.6365-155.18795,205.50057-13.84043,89.30447,28.66174,203.78051,48.36245,211.43044,7.81046,3.04032,14.97085,2.78029,21.29137-.76969.14954-.07996.28993-.15992.43948-.25026,15.4909-9.11057,19.28138-35.54136,19.43153-36.65165.21974-2.08018,21.30052-193.6799,90.6644-252.61295ZM458.3187,512.12769c-3.78071,2.2401-8.30059,2.39026-13.54073.35036-12.41091-4.83057-56.33282-111.7458-42.46249-201.22057,2.1986-14.18041,5.00331-27.7779,8.7596-40.92249-2.12718,8.89266-3.9211,18.02887-5.38846,27.49407-13.49068,86.98441,28.02145,194.69008,44.2326,200.98984,8.31158,3.22892,14.64369,1.54061,19.48952-2.34326-2.41773,6.28511-6.00922,12.67215-11.09004,15.65204Z" fill="#3752a3"/>
    <path d="M962.58264,304.98703c-2.76442-7.50588-5.70708-14.66688-8.75533-21.60571-.40468-.92229-.82768-1.80185-1.23786-2.71315-8.00822-1.15362-21.57947-2.3634-42.17317-1.71029-35.95154,1.14019-61.20307,10.91059-61.20307,10.91059,0,0,.33449.45412.95098,1.2995-1.03094.36379-1.67489.60916-1.83664.67203l-22.22769,9.21434,3.82344,5.14675c.88383,1.18658,88.73498,120.7874,113.43839,204.53677,24.5093,83.1042,22.40715,142.95954,19.81729,167.73864,3.05619-8.81026,5.86578-17.66081,8.42999-26.55103,1.00469-3.48345,2.10521-6.95287,3.03604-10.44487,4.03707-15.14237,7.32703-30.35494,10.03652-45.55957,1.96787-11.04243,3.59332-22.0696,4.90198-33.07053,11.3641-95.5261-1.38618-188.30975-27.00089-257.86346ZM974.54492,636.48644c-.89848-31.66177-5.91278-75.41521-21.5929-128.58076-22.25699-75.45306-94.00381-178.40752-111.25566-202.49077l9.96633-4.13107,3.2277,4.4973c13.9387,19.45961,81.76564,116.27606,107.63121,191.33725,17.83904,63.25822,16.40831,110.72341,12.02332,139.36805Z" fill="#3752a3"/>
    <path d="M696.92337,495.90799l-.70804.16236c-2.27184-3.4041-3.64398-5.26577-3.64398-5.26577,0,0-.49014,2.34387-1.33247,6.40536l-8.04667,1.84275-.69339,3.07145c-.32228,1.42585-39.23539,182.51417-50.30529,244.65112-21.5343,120.82158-66.51217,178.58819-96.27931,216.81279-9.53662,12.24672-17.77434,22.82343-23.43869,33.04856l-1.30744,2.3634c13.33442-.14893,26.69142-.94731,40.04354-2.17723,3.99679-.36806,7.99174-.69889,11.98608-1.16461,34.34806-4.00777,68.56001-11.73522,102.13288-23.15731,8.67171-2.94998,17.29214-6.16486,25.86618-9.62268,3.72883-1.50398,7.47536-2.92862,11.18282-4.52965,14.08214-17.16457,27.83894-42.20369,39.92146-79.60915,3.75507-6.4371,6.73984-13.07562,8.69734-19.90275,59.92004-209.09755-50.99869-358.86592-52.12668-360.35037l-1.94834-2.57826ZM548.15115,989.83938c-9.89796,2.77846-17.69621,4.36546-22.83808,4.88794,4.97096-7.63711,11.358-15.83577,18.49215-24.99639,26.53455-34.07888,64.9203-83.3685,88.84241-177.48462-21.43175,98.74038-63.31865,167.52806-84.49649,197.59306Z" fill="#3752a3"/>
    <path d="M199.36876,604.67329C54.43951,360.94019,70.44618,311.00113,72.19432,307.01166l2.41712-2.10948-7.93986-14.96658-3.81855.9815c-6.42611,1.66024-11.7047,8.00822-16.61217,19.9766-.5231,1.27387-1.01934,2.66493-1.53572,3.96993-1.34162,2.28161-2.67714,4.86353-4.00167,8.09184-17.7249,43.18091-32.43146,106.64788-34.35966,168.13966-.24415,12.96025-.08057,25.94859.69339,38.95035.12269,1.82993.25758,3.65375.40835,5.47025.16358,2.31701.40713,4.6328.60367,6.94982,1.05413,10.09512,2.53431,19.96378,4.56261,29.45218,20.31109,95.04512,129.58667,182.71926,161.17825,199.55056,30.66501,16.3375,58.28727,22.20084,76.9314,24.24501,13.82883,4.4149,22.2808,5.91522,24.17359,5.9378l2.3634.02442,15.55255-18.45309,1.97276-2.75405-1.43074-2.92984c-4.21896-8.60395-42.66819-86.56202-93.98427-172.86524ZM277.00393,786.45867c-8.27862-16.74646-44.38702-88.83936-92.09331-169.06866C27.1725,352.1165,57.82408,314.21479,58.17383,313.90472l-1.26899-2.39392c2.0399-4.38377,3.84968-7.1018,5.29385-8.66926l.5469,1.03521c-5.39578,14.28784-9.00925,75.44329,128.02898,305.90424,47.43405,79.77945,83.82262,152.37592,92.28497,169.49593l-6.05561,7.18176Z" fill="#3752a3"/>
  </g>
  <g>
    <path d="M907.98208,247.9132s-38.42175-24.97075-89.75432-33.67176c-17.57108-2.97989-80.08403-12.55008-145.32722,10.43083-31.49208,11.09065-77.21401,25.8613-118.75604,92.65486-16.12082,25.91135-90.04486,319.22584-95.4553,358.01809-4.35813,31.20093-53.9096,230.40235-75.17839,308.42573,28.17526,7.09081,56.95419,11.77367,86.04259,13.88254,31.40358-26.30871,88.62939-112.30857,113.81255-263.42527,27.22123-163.41835,45.29222-340.42748,118.01565-416.95115,97.94505-103.08508,206.60048-69.36388,206.60048-69.36388Z" fill="#faae32"/>
    <path d="M401.5696,680.70316l-162.54855-289.7645c-.23988-.5701-43.7919-97.98472-45.88185-156.9782-2.2749-63.93697,25.06048-120.3174,51.19279-159.14018-71.45505,43.76627-128.15716,102.91844-168.30263,170.77529-1.32758,25.42549,4.25009,48.24586,8.24383,66.55917,7.14087,32.79159,43.47267,107.40537,44.39252,109.04547l231.98202,413.53117,8.24993-.8405,33.21214-149.69756-.54019-3.49017Z" fill="#faae32"/>
    <path d="M422.44346,599.30132c-15.62946-35.77453-110.23754-278.79531-24.71683-419.41953,42.41549-69.75575,95.5023-108.10609,144.06861-129.077,43.97441-17.96173,83.98316-22.60186,109.23713-23.35873-.86552-.30702-1.88974-.65067-2.79128-.96685,4.88733-.18983,9.30772-.24232,13.12201-.19715-23.645-7.78909-47.87231-13.66158-72.43105-17.86346-27.75288-4.74817-55.90433-7.41676-84.23707-7.41859-36.59366,0-73.38264,4.28244-109.75168,12.53543-6.44747,1.46309-12.88701,2.95181-19.30335,4.68163-43.67471,28.52196-67.03954,63.40166-82.79657,90.59543-4.99476,8.12969-9.32787,15.85835-13.28009,22.90888l-4.53026,8.01066c-56.34137,98.43518,21.10215,255.16557,86.08836,360.15321,28.74536,49.73886,54.2032,86.87149,61.32209,99.41607Z" fill="#faae32"/>
    <path d="M424.2679,602.84337c-.29726-.77274-.96929-2.03502-1.82443-3.54205,1.88303,4.31052,2.68996,5.79741,1.82443,3.54205Z" fill="#faae32"/>
    <path d="M948.94608,616.55744c-4.68835-47.03059-20.60163-93.70472-40.04965-135.47564-41.03663-88.13925-97.88279-154.34928-98.71718-155.31918l-4.03036-1.47041c-1.09014.18006-26.79091,4.59008-58.64251,40.88221-31.86197,36.31166-32.78182,67.40333-32.81173,68.70345l.73978,2.52027c.99004,1.48994,98.54505,150.50754,88.73437,294.13484-7.29651,106.88654-24.31276,164.7441-36.3318,193.46932,7.25684-4.49547,14.27868-9.13804,21.12962-13.8917,76.81421-53.30105,128.5594-122.24804,160.70825-196.53405,2.73085-27.91402,2.97073-59.89563-.7288-97.0191Z" fill="#faae32"/>
    <path d="M318.38604,842.85741c-14.12059-.55972-81.01364-4.87024-114.57553-17.90069-64.84705-25.18561-109.12482-60.94182-140.40509-93.32811,2.19066,4.17319,4.28672,8.37262,6.60739,12.50918,9.96633,17.76641,20.96054,34.57818,32.68355,50.62574,7.83914,9.28087,15.93831,18.69236,24.58011,28.35288,89.48026,99.9996,219.27202,148.76367,223.7858,151.37916.83073.26979,1.67245.50357,2.50501.76908,5.75225-8.7126,18.39327-66.32295-.14893-94.30534l-35.0323-38.10191Z" fill="#faae32"/>
  </g>
</svg>