<?xml version="1.0" encoding="UTF-8"?>
<svg id="Layer_1" xmlns="http://www.w3.org/2000/svg" version="1.1" viewBox="0 0 1000 316.71974">
  <!-- Generator: Adobe Illustrator 29.4.0, SVG Export Plug-In . SVG Version: 2.1.0 Build 152)  -->
  <g>
    <g>
      <path d="M385.98788,86.79166c-1.8134,17.09916-3.52266,36.67714-5.13741,58.73066-1.6367-21.82023-4.37094-48.49068-8.19945-80.01154h-32.94005l18.04849,114.43372h47.44356l15.89459-114.43372h-32.94005l-2.16968,21.28089Z" fill="#faae32"/>
      <path d="M487.93764,75.12402c-3.11594-4.00522-7.23453-7.01067-12.35288-9.01328-5.11855-2.00242-10.89289-3.00218-17.32321-3.00218-6.77718,0-12.70917,1.05963-17.80558,3.17888-5.09314,2.12233-9.13608,5.15935-12.12902,9.11722-2.99275,3.95786-4.77458,8.33207-5.34221,13.113-.56764,4.78401-.85155,12.9236-.85155,24.41877v19.58106c0,11.77908.29643,20.02589.88947,24.73733.59285,4.71163,2.44725,9.07314,5.56299,13.07835s7.23453,7.0074,12.35288,9.01c5.12163,2.00261,10.89269,3.00545,17.32302,3.00545,6.77738,0,12.71244-1.0629,17.80558-3.18215,5.09333-2.12233,9.13627-5.15935,12.12902-9.11722,2.99294-3.96094,4.77477-8.3288,5.34241-13.11281.56764-4.78112.85463-12.92379.85463-24.41896v-19.58106c0-11.77889-.29643-20.02569-.88928-24.73733-.59612-4.71163-2.45052-9.06987-5.56626-13.07508ZM463.15931,147.50067c0,6.73926-.29643,11.00299-.88947,12.79444-.59593,1.79126-1.95526,2.68362-4.08067,2.68362-2.07825,0-3.40293-.77571-3.97057-2.33041-.56764-1.55489-.85155-5.65461-.85155-12.29937v-53.43579c0-5.88771.43213-9.43559,1.29619-10.63727.86733-1.20149,2.11617-1.80069,3.74652-1.80069,1.93004,0,3.20102.74107,3.82236,2.22647.61807,1.48232.9272,4.88814.9272,10.21149v52.58751Z" fill="#faae32"/>
      <polygon points="533.93025 65.51077 502.69638 65.51077 502.69638 179.94449 552.92173 179.94449 552.92173 157.0427 533.93025 157.0427 533.93025 65.51077" fill="#faae32"/>
      <polygon points="588.38217 65.51077 557.1483 65.51077 557.1483 179.94449 607.37345 179.94449 607.37345 157.0427 588.38217 157.0427 588.38217 65.51077" fill="#faae32"/>
      <polygon points="642.83274 131.87959 662.34431 131.87959 662.34431 110.1098 642.83274 110.1098 642.83274 88.41257 663.67842 88.41257 663.67842 65.51077 611.59887 65.51077 611.59887 179.94449 665.75667 179.94449 665.75667 157.0427 642.83274 157.0427 642.83274 131.87959" fill="#faae32"/>
      <path d="M700.54785,110.60487c-.57399-7.72632-3.10323-22.75686-7.58774-45.0941h-28.69192l21.96209,73.01358v41.42015h28.93176v-41.42015l22.77572-73.01358h-28.69211c-4.06816,17.85274-6.96948,32.88635-8.69779,45.0941Z" fill="#faae32"/>
      <path d="M794.09855,118.13216c6.47749-1.41284,10.81705-3.43758,13.0183-6.07404s3.30188-7.29747,3.30188-13.9865c0-9.88677-1.55797-17.05508-4.67371-21.50802-3.11594-4.44985-7.20931-7.40468-12.28051-8.86179-5.06792-1.46019-12.52631-2.19182-22.36573-2.19182h-31.1613v114.43392h36.13144c12.56115,0,20.87109-.68428,24.92654-2.05304,4.05565-1.36548,7.01394-3.91051,8.86814-7.63509,1.85132-3.72438,2.77851-9.45137,2.77851-17.18732v-10.60589c0-7.44895-1.28368-12.98038-3.85392-16.58504-2.5764-3.60774-7.46782-6.19068-14.68964-7.74538ZM781.41133,149.69403c0,4.61693-.60864,7.51517-1.81975,8.69144-1.21092,1.17954-4.01773,1.83861-8.42023,1.98047v-32.01921c4.6485.13878,7.51825.72855,8.60636,1.76624,1.08792,1.03749,1.63362,4.00502,1.63362,8.90587v10.67519ZM780.14978,108.30853c-.84193,1.43805-2.79718,2.15698-5.86269,2.15698-.74107,0-1.78183.02214-3.11575.06949v-25.44702c3.2168.04735,5.38013.26178,6.49346.63712,1.11314.37842,2.01204,1.28657,2.70575,2.72154.69391,1.43805,1.04076,3.94843,1.04076,7.52787,0,6.78354-.4227,10.89577-1.26154,12.33402Z" fill="#faae32"/>
      <path d="M829.35246,65.51096l-15.93232,114.43392h32.29022l1.87653-20.56812h11.17334l1.67461,20.56812h31.92142l-17.86236-114.43392h-45.14145ZM847.18941,139.0891c.8169-10.12949,2.81008-26.15016,5.99512-48.06182,1.58954,19.08291,3.1758,35.1003,4.75591,48.06182h-10.75103Z" fill="#faae32"/>
      <polygon points="925.55002 65.51077 894.31922 65.51077 894.31922 179.94449 944.54438 179.94449 944.54438 157.0427 925.55002 157.0427 925.55002 65.51077" fill="#faae32"/>
      <polygon points="980.00309 157.0427 980.00309 65.51077 948.7723 65.51077 948.7723 179.94449 998.99437 179.94449 998.99437 157.0427 980.00309 157.0427" fill="#faae32"/>
    </g>
    <g>
      <polygon points="399.15112 255.52909 359.15439 196.84751 346.84155 196.84751 346.84155 281.24346 360.74662 281.24346 360.74662 223.27639 399.7917 281.24346 412.70818 281.24346 412.70818 196.84751 399.15112 196.84751 399.15112 255.52909" fill="#3752a3"/>
      <polygon points="456.59463 197.12623 419.4128 281.24346 434.80847 281.24346 461.47295 220.65399 474.63735 249.72068 453.00364 249.72068 446.79948 263.93373 480.8723 263.93373 488.33762 281.30044 503.43302 281.30044 466.56378 197.12623 456.59463 197.12623" fill="#3752a3"/>
      <polygon points="491.37579 211.61646 517.56291 211.61646 517.56291 281.35588 531.06916 281.35588 531.06916 211.61646 556.75274 211.61646 556.75274 196.96146 491.44201 196.96146 491.37579 211.61646" fill="#3752a3"/>
      <rect x="570.32059" y="196.90603" width="13.50779" height="84.39441" fill="#3752a3"/>
      <path d="M647.0572,196.85059h-31.35648c-11.28729,0-17.2543,6.56911-17.2543,18.99744v46.45342c0,12.42833,5.96702,18.99744,17.2543,18.99744h31.35648c11.28729,0,17.27124-6.58605,17.30358-19.05134v-46.56737c0-12.319-5.98396-18.8296-17.30358-18.8296ZM650.70516,217.83756v42.64069c0,4.2439-1.58145,6.05479-5.28793,6.05479h-28.02419c-3.74498,0-5.34183-1.84323-5.34183-6.16566v-42.0309c0-5.9547,2.90728-6.71848,5.44038-6.71848h27.77473c3.81273,0,5.43884,1.86017,5.43884,6.21956Z" fill="#3752a3"/>
      <polygon points="729.14795 255.52909 689.15123 196.84751 676.83839 196.84751 676.83839 281.24346 690.74346 281.24346 690.74346 223.27639 729.78854 281.24346 742.70502 281.24346 742.70502 196.84751 729.14795 196.84751 729.14795 255.52909" fill="#3752a3"/>
      <path d="M803.84423,228.64902h-29.96598c-2.49306,0-5.04155-.71912-5.04155-6.05479v-5.30795c0-3.97442,1.56759-5.66982,5.2402-5.66982h46.47652v-14.76587h-48.02255c-11.28729.0385-17.25276,6.60761-17.25276,18.9882l-.0462,8.08281c0,15.88535,9.38246,19.21918,17.25276,19.21918h29.42086c1.88943,0,3.29533.44964,4.17614,1.33507.9501.95626,1.42592,2.54079,1.41207,4.71972v10.95775c.02618,4.38249-1.70156,6.34891-5.58821,6.37816h-45.9776v14.76741h47.92246c11.27959-.04004,17.26046-6.62762,17.29896-19.05442v-15.86842c0-11.5968-5.98396-17.72705-17.30512-17.72705Z" fill="#3752a3"/>
    </g>
  </g>
  <g>
    <path d="M299.31272,196.79708c-1.5495-15.55601-7.07996-30.93398-13.65369-44.40308,6.13294,13.17248,11.1512,27.89119,12.62967,42.7223,1.16665,11.7069,1.091,21.79232.22983,30.59501.4789-1.1064.89986-2.22724,1.35163-3.34057.49238-7.52691.39883-15.98391-.55743-25.57367Z" fill="#6ac5b6"/>
    <g>
      <path d="M179.79837,73.51908c39.81925-33.83183,91.68091-14.70196,104.78101-9.00904-1.18821-1.60224-2.42858-3.145-3.66875-4.69104-16.50265-6.29289-55.24168-17.18886-89.68023,2.12926-4.54764,2.55138-9.01328,5.62613-13.35264,9.3097-.54338.46158-1.06887.96646-1.59396,1.4727,1.17531-1.34508,2.39643-2.58353,3.67568-3.67029,36.57243-31.0691,82.75271-17.3465,99.88209-10.55642-8.64582-10.54218-18.471-19.7362-29.19642-27.49794-4.09607-2.96426-8.2982-5.75143-12.6341-8.29223-.41577-.24388-.81402-.52086-1.2319-.7607-16.31998-4.19924-37.87073-2.56178-59.97853,9.03503-.77879.40845-1.55662.79785-2.33676,1.23132-.04985.02772-.09951.05101-.14937.07873-.0025.00135-.00462.00289-.00712.00423-.66195.35205-1.32757.68428-1.98644,1.05173-.13551.07565-.27121.15129-.40672.22694-35.33995,19.82397-45.13221,40.25023-48.93859,64.80469-4.36458,28.1622,9.03849,64.26227,15.25112,66.67468,2.46303.95876,4.72107.87677,6.71424-.24272.04716-.02522.09143-.05043.13859-.07892,4.88506-2.87302,6.08039-11.20798,6.12774-11.55811.06929-.65599,6.71713-61.07704,28.59106-79.6616ZM143.56914,162.18434c-1.19225.70642-2.6176.75377-4.27007.11049-3.91379-1.52332-17.76458-35.23909-13.39056-63.45499.69333-4.4718,1.57779-8.75977,2.76234-12.90493-.67081,2.80431-1.23652,5.68541-1.69925,8.67027-4.25429,27.43057,8.83658,61.3956,13.94877,63.38223,2.62106,1.01824,4.61789.48583,6.14603-.73895-.76243,1.98201-1.89501,3.99617-3.49725,4.93588Z" fill="#3752a3"/>
      <path d="M302.58899,96.86244c-.87176-2.36698-1.79973-4.62521-2.761-6.81337-.12762-.29084-.26101-.56821-.39036-.85559-2.5254-.3638-6.80509-.7453-13.29933-.53934-11.33733.35956-19.30041,3.44066-19.30041,3.44066,0,0,.10548.14321.29989.4098-.32511.11472-.52818.1921-.57919.21193l-7.00951,2.90574,1.20572,1.62303c.27872.37419,27.98262,38.09036,35.77285,64.50076,7.72902,26.20695,7.0661,45.08235,6.24939,52.89645.96377-2.77832,1.84978-5.56934,2.6584-8.37288.31683-1.09851.66388-2.19259.95742-3.29379,1.27309-4.77515,2.31058-9.57244,3.16502-14.36723.62057-3.48224,1.13316-6.95966,1.54584-10.42881,3.58368-30.1242-.43713-59.38356-8.51474-81.31736ZM306.3613,201.40092c-.28334-9.98455-1.8646-23.78222-6.80933-40.548-7.01875-23.79415-29.64414-56.26089-35.08452-63.85555l3.14289-1.30273,1.01786,1.41823c4.39557,6.1366,25.78483,36.66771,33.94155,60.33829,5.62555,19.94851,5.17437,34.91667,3.79156,43.94978Z" fill="#3752a3"/>
      <path d="M218.81323,157.06945l-.22328.0512c-.71643-1.07349-1.14913-1.66056-1.14913-1.66056,0,0-.15456.73914-.42019,2.01993l-2.53752.58111-.21866.96858c-.10163.44964-12.3729,57.55592-15.8638,77.15084-6.79085,38.10114-20.97464,56.31786-30.36172,68.37201-3.00738,3.86201-5.60515,7.19738-7.3914,10.42188l-.4123.7453c4.20501-.04697,8.41715-.29874,12.62775-.68659,1.26039-.11607,2.5202-.22039,3.77982-.36726,10.83168-1.26385,21.62043-3.70071,32.20765-7.30267,2.73463-.93028,5.45308-1.94409,8.15691-3.03452,1.17589-.47428,2.35736-.92354,3.52651-1.42843,4.44081-5.41285,8.77902-13.30895,12.58925-25.10478,1.18416-2.02994,2.12541-4.1234,2.74271-6.27634,18.89581-65.939-16.08246-113.16852-16.43817-113.63665l-.61441-.81305ZM171.89784,312.83093c-3.12133.87619-5.58051,1.37665-7.202,1.54142,1.56759-2.40837,3.58175-4.99382,5.83151-7.88262,8.36768-10.74679,20.47264-26.29029,28.01649-55.96985-6.75851,31.13782-19.96756,52.83005-26.646,62.31106Z" fill="#3752a3"/>
      <path d="M61.90916,191.36864C16.20566,114.5073,21.25337,98.75899,21.80465,97.50091l.76224-.66523-2.50384-4.71972-1.20418.30951c-2.02648.52356-3.69108,2.5254-5.23866,6.29963-.16496.40171-.32145.84039-.48429,1.25192-.42308.71951-.84424,1.53372-1.26193,2.55177-5.58956,13.61712-10.22727,33.63146-10.83533,53.02291-.07699,4.08702-.02541,8.1829.21866,12.28301.03869.57707.08123,1.15221.12877,1.72505.05159.73067.12839,1.46096.19037,2.19163.33242,3.1835.7992,6.29559,1.43882,9.28776,6.40511,29.97252,40.86521,57.6206,50.82763,62.92836,9.67023,5.15204,18.38092,7.00104,24.26035,7.64567,4.36093,1.39224,7.02626,1.86537,7.62315,1.87249l.7453.0077,4.9045-5.81919.62211-.86849-.45118-.92393c-1.33045-2.71326-13.45543-27.29737-29.63798-54.51313ZM86.39145,248.69473c-2.61067-5.281-13.99747-28.01553-29.04167-53.31588C7.607,111.72474,17.27299,99.77242,17.38328,99.67464l-.40018-.75492c.64328-1.38242,1.214-2.23956,1.66942-2.73386l.17247.32645c-1.70156,4.50568-2.84107,23.79107,40.37399,96.46703,14.95835,25.15848,26.4335,48.05181,29.10211,53.45062l-1.90964,2.26477Z" fill="#3752a3"/>
    </g>
    <g>
      <path d="M285.37068,78.86418s-12.11632-7.87454-28.30406-10.6184c-5.54105-.93971-25.25453-3.95767-45.829,3.28937-9.93104,3.49744-24.34947,8.15537-37.44977,29.21875-5.08371,8.17116-28.39569,100.66801-30.10187,112.90116-1.37434,9.83923-17.00042,72.65748-23.70754,97.26219,8.88508,2.23609,17.96053,3.71283,27.13357,4.37787,9.90313-8.29646,27.94932-35.41656,35.89084-83.07127,8.58423-51.53405,14.28292-107.35395,37.21629-131.48573,30.88701-32.50792,65.15155-21.87393,65.15155-21.87393Z" fill="#faae32"/>
      <path d="M125.67329,215.34469l-51.25976-91.37736c-.07565-.17978-13.8098-30.89952-14.46886-49.50314-.71739-20.16255,7.90283-37.94214,16.14367-50.18492-22.53338,13.80171-40.41441,32.45538-53.07431,53.85406-.41865,8.01794,1.34027,15.21435,2.59969,20.98946,2.25188,10.34084,13.70913,33.87033,13.9992,34.38754l73.15563,130.40724,2.60162-.26505,10.47346-47.20719-.17035-1.10063Z" fill="#faae32"/>
      <path d="M132.25587,189.67458c-4.92876-11.28151-34.76346-87.91822-7.79446-132.26413,13.37574-21.99751,30.11669-34.0913,45.4321-40.70449,13.86735-5.66424,26.48412-7.12751,34.44798-7.36619-.27294-.09682-.59593-.20519-.88023-.3049,1.54122-.05986,2.9352-.07642,4.13803-.06217-7.45646-2.45629-15.09655-4.30819-22.84116-5.63325-8.75188-1.49734-17.62946-2.33888-26.5642-2.33946-11.53983,0-23.14125,1.35047-34.61024,3.95305-2.03321.46139-4.06392.93085-6.08732,1.47636-13.77284,8.99441-21.14095,19.99374-26.10993,28.56931-1.5751,2.5637-2.94155,5.00094-4.18788,7.22433l-1.42862,2.52617c-17.76727,31.04158,6.65457,80.46657,27.148,113.57447,9.06486,15.68517,17.093,27.39496,19.33795,31.3509Z" fill="#faae32"/>
      <path d="M132.8312,190.79157c-.09374-.24369-.30567-.64174-.57534-1.11699.59381,1.35933.84828,1.82822.57534,1.11699Z" fill="#faae32"/>
      <path d="M298.2887,195.11631c-1.47847-14.83112-6.49673-29.54982-12.62967-42.7223-12.94092-27.79475-30.86738-48.67411-31.13051-48.97997l-1.27097-.46369c-.34378.05678-8.44853,1.44748-18.49294,12.89222-10.04769,11.4509-10.33776,21.25567-10.34719,21.66566l.23329.79477c.31221.46985,31.07623,47.46262,27.98242,92.75555-2.30096,33.70672-7.66704,51.95212-11.45725,61.01063,2.28845-1.41765,4.50279-2.88168,6.66323-4.38075,24.2234-16.80851,40.54126-38.55097,50.67942-61.9771.86118-8.8027.93682-18.88811-.22983-30.59501Z" fill="#faae32"/>
      <path d="M99.44132,266.4801c-4.45293-.17651-25.54769-1.53583-36.13144-5.64499-20.44955-7.94229-34.41256-19.21803-44.27681-29.43106.69083,1.31602,1.35182,2.64031,2.08364,3.94478,3.14289,5.60264,6.60992,10.90424,10.30677,15.96485,2.47208,2.92673,5.02615,5.89464,7.75135,8.94109,28.21764,31.53492,69.14753,46.91269,70.57095,47.73748.26197.08508.52741.1588.78996.24253,1.81397-2.74752,5.80033-20.91497-.04697-29.73923l-11.04745-12.01546Z" fill="#faae32"/>
    </g>
  </g>
</svg>