<?xml version="1.0" encoding="UTF-8"?>
<svg id="Layer_1" xmlns="http://www.w3.org/2000/svg" version="1.1" viewBox="0 0 60 60">
  <!-- Generator: Adobe Illustrator 29.2.1, SVG Export Plug-In . SVG Version: 2.1.0 Build 116)  -->
  <defs>
    <style>
      .st0 {
        fill: #ff9d1d;
      }

      .st1 {
        fill: #124295;
      }
    </style>
  </defs>
  <g>
    <path class="st1" d="M34.2,14.2c7.3-6.2,16.9-2.7,19.3-1.7-.2-.3-.4-.6-.7-.9-3.8-1.7-13.5-3.3-19.2,2.3,6.1-6.3,16-4,19-2.6-2.2-2.7-4.9-5-7.9-6.7-3.1-.9-7.5-.5-11.7,2-6.5,3.5-8.6,7.5-9.3,12.1-.8,5.2,1.7,11.8,2.8,12.3h0c.4.2.9.2,1.2,0h0c.6-.6,1-1.3,1.1-2.1,0-.1,1.2-11.2,5.3-14.7h.1ZM27.5,30.6c-.2.1-.5.1-.8,0-.7-.3-3.3-6.5-2.5-11.7.1-.8.3-1.7.5-2.4-1.5,4.6,1,12.9,2.2,13.3.5.2.8,0,1.1-.1-.1.3-.4.6-.6.9h0Z"/>
    <path class="st1" d="M56.3,17.2h0c-2-.4-4.1-.1-6.1.5l-1.5.6c.4.6,5.3,6.9,6.9,12.3,1.9,6.7,1.1,10.2,1,10.7,3-7.5,2.8-17.3-.2-24.1h-.1ZM57.7,36.5c0-1.7-.5-3.8-1.2-6.3-1.3-4.3-5.1-9.9-6.3-11.6h.2c.9,1.2,5.2,7.2,6.5,11.7.3.9.5,1.9.7,2.9,0,1.3.2,2.3,0,3.2h0Z"/>
    <polygon class="st1" points="41.1 29.3 41.1 29.3 41.1 29.3 41.1 29.3"/>
    <path class="st1" d="M41.5,29.4h-.3c0,.2-.5.3-.5.3v.3s-2.3,10.6-3,14.2c-1.7,8.8-4.3,10.3-7.1,14.8,3.9,0,7.8-.8,11.4-2.4.7-.9,1.4-2.1,2.1-3.9.4-.6.8-1.2,1-1.9,2.2-7.3,1-15.1-3.2-21.4h-.4ZM32.6,58.1c-.3,0-.5,0-.7.2,1.1-1.5,2.1-2.6,3.2-4.5-.7,1.5-1.5,3-2.5,4.3Z"/>
    <path class="st1" d="M12.7,35.8c-8.1-13.7-7.5-16.7-7.4-17.1l.2-.2-.6-1.2c-.7.1-1.1.4-1.5,1.4-.8,1.9-1.5,4.6-1.8,7.3-.4,2.6-.5,5.4,0,7.9,1.2,5.5,7.5,10.6,9.4,11.6,1,.6,2.1.9,3.2,1.2.9.4,1.9.6,2.9.8l1-1.2.2-.3c-.6-1.3-2.6-5.2-5.6-10.3h0ZM11.8,36.3c2.6,4.4,4.6,8.4,5.3,9.7l-.2.2c-.6-1.3-2.6-5.2-5.2-9.6-6.8-11.5-7.6-15.6-7.5-17,0,0,0-.2,0-.3,0,1.9,1.3,6.4,7.6,17h0Z"/>
  </g>
  <g>
    <path class="st0" d="M54.4,30.4c.6,1.4,1,3,1.3,4.6-.4-2.1-1-4.2-1.9-6-2.4-5.2-5.8-9.2-5.8-9.2h-.2s-1.6.2-3.4,2.3c-1.1,1.1-1.7,2.5-1.9,4h0c0,.2,5.7,8.9,5.2,17.2-.4,6.2-1.4,9.6-2.1,11.2,4.9-3,8.6-7.5,10.5-12.2.2-2,.2-4.2-.2-6.5.3,2.3.4,4.5.2,6.5,0-.2.2-.4.3-.6,0-1.4,0-2.9,0-4.7-.2-2.3-.9-4.5-1.8-6.6h0Z"/>
    <path class="st0" d="M53.8,29c.2.4.4.9.6,1.4-.2-.5-.4-.9-.6-1.4Z"/>
    <path class="st0" d="M54.4,30.4h0Z"/>
    <path class="st0" d="M53.7,15.2h0c-4.1-2.5-9.2-2.8-13.6-1.4-2.9.8-5.4,2.8-6.9,5.4-4.1,11.3-6.2,25.9-9.9,38.8,1.6.4,3.3.7,4.9.8,8.9-7.5,6.3-32,13.5-39.6,5.7-6,12-4,12-4Z"/>
    <path class="st0" d="M24.3,40.4l-9.4-16.8c-2.5-5.8-4.5-11.4.3-18.4-4.1,2.5-7.4,5.9-9.8,9.8,0,1.5.2,2.9.5,4,.7,2.2,1.6,4.3,2.6,6.3l13.5,24h.5l1.9-8.7v-.2h-.1Z"/>
    <path class="st0" d="M25.5,35.6c-3.3-8.1-8.2-25,6.9-31.8,2-.8,4.1-1.3,6.3-1.3h-.2.8c-5.3-1.8-11.1-2-16.6-.5-2.2,1.4-3.5,3.2-4.4,4.6-.4.6-.8,1.3-1.2,2-3.7,5.8.8,15,4.7,21.3,1.7,2.9,3.2,5.1,3.6,5.8h.1Z"/>
    <path class="st0" d="M25.6,35.8s0,0-.1-.2c.1.3.2.3.1.2Z"/>
    <path class="st0" d="M19.4,49.8c-2.3,0-4.5-.4-6.7-1-3.2-1.3-6.1-3.2-8.5-5.7.5.9,1,1.8,1.5,2.7.8,1,1.6,2,2.5,3,5.3,5.9,13,8.7,13,8.8.1.9,1.4-3.5.1-5.4l-2-2.2v-.2Z"/>
  </g>
</svg>