<?xml version="1.0" encoding="UTF-8"?>
<svg id="Layer_1" xmlns="http://www.w3.org/2000/svg" version="1.1" viewBox="0 0 185.7 60" fill="white">
  <g>
    <polygon points="74.1 47.2 67 36.8 64.5 36.8 64.5 52.8 67.4 52.8 67.4 42.6 74.3 52.8 77 52.8 77 36.8 74.1 36.8 74.1 47.2"/>
    <polygon points="81.8 40 90.4 40 90.4 36.8 78.9 36.8 78.9 52.8 90.4 52.8 90.4 49.7 81.8 49.7 81.8 40"/>
    <rect x="81.9" y="42.7" width="8.4" height="3.1"/>
    <polygon points="91.9 40 96.7 40 96.7 52.8 99.6 52.8 99.6 40 104.3 40 104.3 36.9 91.9 36.9 91.9 40"/>
    <polygon points="119.5 47.7 114.8 36.9 111.7 36.9 111.7 37.4 114.5 43.9 112.9 47.7 108.1 36.9 104.8 36.9 111.8 52.8 113.9 52.8 116.1 47.8 115.2 45.3 118.5 52.8 120.6 52.8 127.6 36.9 124.3 36.9 119.5 47.7"/>
    <path d="M137,36.8h-5.8c-1.1,0-2,.3-2.5,1-.6.6-.8,1.5-.8,2.7v8.6c0,3.1,1.8,3.7,3.4,3.7h5.8c1.5,0,3.4-.6,3.4-3.7v-8.6c0-3-1.8-3.7-3.4-3.7ZM137.4,40.9v7.9c0,.8-.3.9-.8.9h-5.2c-.5,0-.8-.2-.8-.9v-7.9c0-.8.4-.9.8-.9h5.1c.5,0,.8.2.8.9Z"/>
    <path d="M151.4,45.8c1.5,0,3.4-.7,3.4-3.7.2-3.4-.6-5.2-3.4-5.2,0,0-9.1,0-9.1,0v15.9h2.9v-12.8h6c.5,0,.7.1.7.9,0,.7.3,2-.8,1.9h-5.8v2.8l6.5,7.3h3.9l-6-7h1.8Z"/>
    <polygon points="169.4 36.9 165.6 36.9 159.6 44 159.6 36.8 156.7 36.8 156.7 52.8 159.6 52.8 159.6 44.4 165.8 52.8 169.4 52.8 163.1 44.3 169.4 36.9"/>
    <path d="M33.9,14.3c7.3-6.2,16.9-2.7,19.3-1.7-.2-.3-.4-.6-.7-.9-3.8-1.7-13.5-3.3-19.2,2.3,6.1-6.3,16-4,19-2.6-2.2-2.7-4.9-5-7.9-6.7-3.1-.9-7.5-.5-11.7,2-6.5,3.5-8.6,7.5-9.3,12.1-.8,5.2,1.7,11.8,2.8,12.3h0c.4.2.9.2,1.2,0h0c.6-.6,1-1.3,1.1-2.1,0-.1,1.2-11.2,5.3-14.7ZM27.2,30.7c-.2.1-.5.1-.8,0-.7-.3-3.3-6.5-2.5-11.7.1-.8.3-1.7.5-2.4-1.5,4.6,1,12.9,2.2,13.3.5.2.8,0,1.1-.1-.1.3-.4.6-.6.9Z"/>
    <path d="M56,17.3s0,0,0,0c-2-.4-4.1-.1-6.1.5l-1.5.6c.4.6,5.3,6.9,6.9,12.3,1.9,6.7,1.1,10.2,1,10.7,3-7.5,2.8-17.3-.2-24.1ZM57.4,36.6c-.1-1.7-.5-3.8-1.2-6.3-1.3-4.3-5.1-9.9-6.3-11.6h.2c.9,1.2,5.2,7.2,6.5,11.7.3.9.5,1.9.7,2.9.1,1.3.2,2.3.1,3.2Z"/>
    <polygon points="40.8 29.4 40.8 29.4 40.8 29.4 40.8 29.4"/>
    <path d="M41.2,29.5h-.3s0,0,0,0c0,0,0,0,0,.1h0s0,0,0,0h0c0,.1-.5.2-.5.2v.3c0,0-2.3,10.6-3,14.2-1.7,8.8-4.3,10.3-7.1,14.8,3.9,0,7.8-.8,11.4-2.4.7-.9,1.4-2.1,2.1-3.9.4-.6.8-1.2,1-1.9,2.2-7.3,1-15.1-3.2-21.4ZM32.3,58.2c-.3,0-.5.1-.7.2,1.1-1.5,2.1-2.6,3.2-4.5-.7,1.5-1.5,3-2.5,4.3Z"/>
    <path d="M12.4,35.9c-8.1-13.7-7.5-16.7-7.4-17.1l.2-.2-.6-1.2c-.7.1-1.1.4-1.5,1.4-.8,1.9-1.5,4.6-1.8,7.3-.4,2.6-.5,5.4,0,7.9,1.2,5.5,7.5,10.6,9.4,11.6,1,.6,2.1.9,3.2,1.2.9.4,1.9.6,2.9.8l1-1.2.2-.3c-.6-1.3-2.6-5.2-5.6-10.3ZM11.5,36.4c2.6,4.4,4.6,8.4,5.3,9.7l-.2.2c-.6-1.3-2.6-5.2-5.2-9.6-6.8-11.5-7.6-15.6-7.5-17,0,0,0-.2.1-.3,0,1.9,1.3,6.4,7.6,17Z"/>
  </g>
  <g>
    <path d="M54.1,30.5c.6,1.4,1,3,1.3,4.6-.4-2.1-1-4.2-1.9-6-2.4-5.2-5.8-9.2-5.8-9.2h-.2c0,0-1.6.2-3.4,2.3-1.1,1.1-1.7,2.5-1.9,4h0c0,.2,5.7,8.9,5.2,17.2-.4,6.2-1.4,9.6-2.1,11.2,4.9-3,8.6-7.5,10.5-12.2.2-2,.2-4.2-.2-6.5.3,2.3.4,4.5.2,6.5,0-.2.2-.4.3-.6,0-1.4,0-2.9-.1-4.7-.2-2.3-.9-4.5-1.8-6.6Z"/>
    <path d="M53.5,29.1c.2.4.4.9.6,1.4-.2-.5-.4-.9-.6-1.4Z"/>
    <path d="M54.1,30.5s0,0,0,0c0,0,0,0,0,0Z"/>
    <path d="M71.9,16.8c-.3,3.1-.6,6.8-.9,10.8-.3-4-.8-8.9-1.5-14.7h-6.1l3.3,21.1h8.7l2.9-21.1h-6.1l-.4,3.9Z"/>
    <path d="M91.8,21.6c0-1.5,0-3-.2-4.6-.1-.9-.5-1.7-1-2.4-1.3-1.6-3.5-2.2-5.5-2.2-2.9-.1-6.2,1.5-6.5,4.7-.2,2.4-.1,5.6-.2,8.1,0,1.5,0,3,.2,4.6.4,3.1,3.6,4.7,6.5,4.6,2.9.1,6.2-1.5,6.5-4.7.2-2.4.1-5.6.2-8.1ZM85.9,30.3c0,.3-.4.5-.8.5-.3,0-.6-.1-.7-.4-.1-.7-.2-1.5-.2-2.3v-9.8c0-.7,0-1.3.2-2,.2-.2.4-.3.7-.3.3,0,.6.1.7.4.2.6.2,1.2.2,1.9v9.7c0,.8,0,1.6-.2,2.4Z"/>
    <polygon points="99.1 12.9 93.4 12.9 93.4 33.9 102.6 33.9 102.6 29.7 99.1 29.7 99.1 12.9"/>
    <polygon points="109.1 12.9 103.4 12.9 103.4 33.9 112.6 33.9 112.6 29.7 109.1 29.7 109.1 12.9"/>
    <polygon points="119.2 25.1 122.7 25.1 122.7 21.1 119.2 21.1 119.2 17.1 123 17.1 123 12.9 113.4 12.9 113.4 33.9 123.4 33.9 123.4 29.7 119.2 29.7 119.2 25.1"/>
    <path d="M129.8,21.2c-.1-1.4-.6-4.2-1.4-8.3h-5.3l4,13.4v7.6h5.3v-7.6l4.2-13.4h-5.3c-.7,3.3-1.3,6.1-1.6,8.3Z"/>
    <path d="M150.4,27c0-1.1-.2-2.1-.7-3.1-.7-.8-1.7-1.3-2.7-1.4.9-.1,1.7-.5,2.4-1.1.5-.8.7-1.7.6-2.6.1-1.4-.2-2.8-.9-4-.5-.8-1.3-1.4-2.3-1.6-1.3-.3-2.7-.4-4.1-.4h-5.7v21.1h6.6c1.5,0,3.1,0,4.6-.4.7-.2,1.3-.7,1.6-1.4.4-1,.6-2.1.5-3.2v-2ZM144,16.6c.2,0,.4.3.5.5.2.4.2.9.2,1.4,0,.8,0,1.5-.2,2.3-.2.4-1,.4-1.7.4v-4.7h0c.4,0,.8,0,1.2.1ZM144.3,30c-.5.3-1,.4-1.5.4v-5.9c.5,0,1.1,0,1.6.3.4.4.3,2.8.3,3.6,0,.6,0,1.1-.3,1.6Z"/>
    <path d="M153.5,12.9l-2.9,21.1h5.9l.3-3.8h2.1l.3,3.8h5.9l-3.3-21.1h-8.3ZM156.8,26.4c.1-1.9.5-4.8,1.1-8.8.3,3.5.6,6.5.9,8.8h-2Z"/>
    <polygon points="171.2 12.9 165.5 12.9 165.5 33.9 174.7 33.9 174.7 29.7 171.2 29.7 171.2 12.9"/>
    <polygon points="181.2 29.7 181.2 12.9 175.5 12.9 175.5 33.9 184.7 33.9 184.7 29.7 181.2 29.7"/>
    <path d="M53.4,15.3h0c-4.1-2.5-9.2-2.8-13.6-1.4-2.9.8-5.4,2.8-6.9,5.4-4.1,11.3-6.2,25.9-9.9,38.8,1.6.4,3.3.7,4.9.8,8.9-7.5,6.3-32,13.5-39.6,5.7-6,12-4,12-4Z"/>
    <path d="M24,40.5l-9.4-16.8c-2.5-5.8-4.5-11.4.3-18.4-4.1,2.5-7.4,5.9-9.8,9.8-.1,1.5.2,2.9.5,4,.7,2.2,1.6,4.3,2.6,6.3l13.5,24h.5s1.9-8.7,1.9-8.7v-.2Z"/>
    <path d="M25.2,35.7c-3.3-8.1-8.2-25,6.9-31.8,2-.8,4.1-1.3,6.3-1.3,0,0-.1,0-.2,0,.3,0,.6,0,.8,0-5.3-1.8-11.1-2-16.6-.5-2.2,1.4-3.5,3.2-4.4,4.6-.4.6-.8,1.3-1.2,2-3.7,5.8.8,15,4.7,21.3,1.7,2.9,3.2,5.1,3.6,5.8Z"/>
    <path d="M25.3,35.9s0-.1-.1-.2c.1.3.2.3.1.2Z"/>
    <path d="M19.1,49.9c-2.3,0-4.5-.4-6.7-1-3.2-1.3-6.1-3.2-8.5-5.7.5.9,1,1.8,1.5,2.7.8,1,1.6,2,2.5,3,5.3,5.9,13,8.7,13,8.8.1.9,1.4-3.5.1-5.4l-2-2.2Z"/>
  </g>
</svg>